<svg width="194" height="51" viewBox="0 0 194 51" fill="none" xmlns="http://www.w3.org/2000/svg">
<g clip-path="url(#clip0_9_13)">
<path d="M52.9495 32.1236V24.1173H49.9114V21.8588H52.9495V17.7542H55.3801V21.8588H59.5319V24.1173H55.3801V31.8139C55.3801 33.6621 56.1909 34.2775 57.709 34.2775C58.3166 34.2775 59.0259 34.175 59.4303 33.9698V36.2283C58.8227 36.4334 58.1134 36.536 57.203 36.536C54.7725 36.536 52.9495 35.1001 52.9495 32.1216V32.1236Z" fill="#003734"/>
<path d="M59.6335 29.1472C59.6335 24.8373 62.3669 21.5532 66.9252 21.5532C71.4814 21.5532 74.1152 25.2476 73.8124 29.8671H62.0661C62.1677 32.5359 64.1938 34.4847 66.8256 34.4847C68.6485 34.4847 70.0649 33.7667 70.9774 32.021H73.5096C72.8003 34.5872 70.4714 36.7432 66.8256 36.7432C62.6737 36.7432 59.6356 33.459 59.6356 29.1492L59.6335 29.1472ZM62.1657 27.8138H71.077C70.571 25.145 68.8497 23.7091 66.7219 23.7091C64.5942 23.7091 62.6717 24.9399 62.1657 27.8138Z" fill="#003734"/>
<path d="M74.9239 37.7688H77.2528C77.8605 39.7176 79.4802 40.6427 81.8091 40.6427C84.4428 40.6427 86.2637 38.8991 86.2637 35.6149V33.7667C85.2517 35.3052 83.4288 36.3329 81.3031 36.3329C77.3545 36.3329 74.3163 33.0487 74.3163 28.8394C74.3163 24.6302 77.3545 21.4506 81.3031 21.4506C83.4308 21.4506 85.2517 22.4763 86.2637 24.0168V21.7583H88.6943V35.4078C88.6943 40.335 85.5545 42.6961 81.7075 42.6961C77.8584 42.7986 75.3283 40.6427 74.9239 37.7688ZM86.5686 28.942C86.5686 26.0681 84.644 23.8096 81.7075 23.8096C78.7709 23.8096 76.8464 25.9656 76.8464 28.942C76.8464 31.9185 78.7709 34.0744 81.7075 34.0744C84.644 34.0744 86.5686 31.9185 86.5686 28.942Z" fill="#003734"/>
<path d="M90.4176 29.1472C90.4176 24.9379 93.4558 21.5532 97.4044 21.5532C99.5321 21.5532 101.455 22.6834 102.467 24.1194V21.8609H104.897V36.4355H102.467V34.177C101.556 35.6129 99.6317 36.7432 97.4044 36.7432C93.3542 36.7432 90.4176 33.2539 90.4176 29.1492V29.1472ZM102.57 29.1472C102.57 26.1707 100.544 23.9122 97.7092 23.9122C94.8743 23.9122 92.8481 26.2733 92.8481 29.1472C92.8481 32.021 94.8743 34.3821 97.7092 34.3821C100.544 34.3821 102.57 32.021 102.57 29.1472Z" fill="#003734"/>
<path d="M107.025 21.8609H109.455V24.1194C110.467 22.3757 112.089 21.5532 114.012 21.5532C117.251 21.5532 119.379 23.8116 119.379 27.4035V36.4355H116.948V27.8138C116.948 25.3502 115.631 23.8117 113.607 23.8117C111.278 23.8117 109.455 25.7604 109.455 29.1492V36.4375H107.025V21.8629V21.8609Z" fill="#003734"/>
<path d="M121.303 16.1131C121.303 15.19 122.114 14.3694 123.025 14.3694C123.935 14.3694 124.746 15.19 124.746 16.1131C124.746 17.1388 124.037 17.8567 123.025 17.8567C122.013 17.8567 121.303 17.1388 121.303 16.1131ZM121.809 21.8609H124.24V36.4355H121.809V21.8609Z" fill="#003734"/>
<path d="M17.9221 0H11.543V2.46362H17.9221V0Z" fill="#003734"/>
<path d="M22.7853 7.34863V2.46362H31.595V0H20.3547V15.5701C20.0113 15.8255 19.0683 16.2177 18.3591 16.5033C15.3616 17.7341 10.3298 19.7874 10.3298 25.4527C10.3298 34.7723 20.3954 42.8389 20.8201 43.1767L21.5598 43.762L22.3097 43.1767C22.7345 42.8369 32.8102 34.8728 32.8102 25.4427C32.8102 19.7673 27.7886 17.7139 24.7809 16.4932C24.0717 16.2056 23.1206 15.8155 22.7853 15.56V9.81226C32.7696 10.4478 40.7095 18.8643 40.7095 29.1472C40.7095 39.43 32.1213 48.5444 21.57 48.5444C11.0187 48.5444 2.42851 39.8423 2.42851 29.1472C2.42851 19.715 9.11249 11.8435 17.9222 10.1099V7.61611C7.74683 9.37182 0 18.3314 0 29.1371C0 41.2058 9.66119 50.998 21.57 50.998C33.4788 50.998 43.14 41.2058 43.14 29.1371C43.14 17.0684 34.1271 7.98415 22.7873 7.33858V7.34863H22.7853ZM22.7853 29.6298L28.1219 32.8436C27.6972 33.5837 27.2196 34.2916 26.7359 34.9694L23.8095 33.2036C23.1816 32.8235 22.7873 32.1256 22.7873 31.3775V29.6339L22.7853 29.6298ZM23.8075 27.3814C23.1795 27.0013 22.7853 26.3034 22.7853 25.5553V23.9042L30.0159 28.2663C29.8127 29.0768 29.5505 29.8772 29.2152 30.6475L23.7973 27.3834H23.8075V27.3814ZM12.7603 25.4527C12.7603 21.7483 15.707 20.2399 19.2614 18.7819C19.6455 18.627 20.0113 18.4742 20.3446 18.3193V39.4602C17.5503 36.7412 12.7502 31.2287 12.7502 25.4507H12.7603V25.4527ZM22.7853 39.4823V35.45L25.2057 36.9081C24.346 37.9237 23.5047 38.7965 22.7853 39.4843V39.4823ZM30.3797 25.4527V25.6076L23.8176 21.6557C23.1897 21.2756 22.7954 20.5778 22.7954 19.8296V18.3314C23.1389 18.4862 23.5047 18.629 23.8786 18.7939C27.4431 20.252 30.3797 21.7603 30.3797 25.4648V25.4547V25.4527Z" fill="#003734"/>
<path d="M137.514 22.241V25.8107H135.017V32.2664C135.017 33.7607 135.068 34.8748 135.192 36.2665H129.871C129.995 34.8487 130.046 33.634 130.046 32.2664V25.8107H127.798V22.241H131.42V21.6598C129.148 21.1027 127.949 20.1414 127.949 18.3937C127.949 16.2921 130.347 15.3569 132.519 15.3569C134.442 15.3569 136.041 15.8637 137.415 16.5716V20.1916C136.315 19.7613 135.143 19.4314 133.968 19.4314C133.094 19.4314 132.245 19.7613 132.245 20.5697C132.245 21.4043 132.995 21.885 133.818 22.241H137.514Z" fill="#003734"/>
<path d="M149.944 21.71V26.5206C149.118 26.2431 148.295 26.0903 147.371 26.0903C145.322 26.0903 144.174 27.128 144.174 29.7867V36.2665H138.953C139.104 34.722 139.179 33.5073 139.179 31.7596L139.203 26.4442C139.203 24.3687 139.179 23.2284 138.953 21.5833H144.074C143.674 23.1279 143.55 23.9122 143.524 25.6599H144.123C144.298 22.9006 145.647 21.2797 147.895 21.2797C148.618 21.2797 149.368 21.4305 149.944 21.71Z" fill="#003734"/>
<path d="M150.834 28.8495C150.834 24.2923 153.581 21.2797 158.202 21.2797C161.974 21.2797 164.122 23.1017 164.122 25.7866C164.122 29.0768 161.501 30.3941 156.105 30.4946C156.43 31.836 157.379 32.6465 159.003 32.6465C160.751 32.6465 162.175 32.2664 163.773 31.5585L163.797 35.2047C162.373 35.9649 160.474 36.5964 157.928 36.5964C153.232 36.5964 150.834 33.5576 150.834 28.8495ZM155.977 28.2924C158.824 28.2422 160.023 27.6589 160.023 26.3678C160.023 25.3301 159.499 24.596 158.276 24.596C156.652 24.596 155.977 26.1647 155.977 28.0129V28.2904V28.2924Z" fill="#003734"/>
<path d="M178.622 32.0392C178.622 35.1785 175.751 36.6205 171.678 36.6205C169.256 36.6205 167.258 36.0373 165.535 35.2288V31.2287C167.707 32.1156 169.282 32.5701 170.955 32.5701C172.503 32.5701 173.527 32.3167 173.527 31.4318C173.527 30.5208 172.528 30.2412 170.93 29.9637C167.707 29.4066 165.486 28.3427 165.486 25.4326C165.486 22.7237 168.158 21.2817 171.53 21.2817C173.853 21.2817 175.877 21.7623 177.425 22.597V26.1908C175.777 25.507 173.979 25.1531 172.605 25.1531C171.081 25.1531 170.156 25.4568 170.156 26.3678C170.156 27.128 170.806 27.3794 172.578 27.6851C176.151 28.2663 178.622 29.0526 178.622 32.0392Z" fill="#003734"/>
<path d="M188.903 28.5961C188.903 26.3678 188.605 25.3059 187.156 25.3059C185.757 25.3059 185.207 26.4201 185.207 28.5458V36.2665H180.161C180.26 34.722 180.36 32.1156 180.36 31.5082V20.3183C180.36 18.8764 180.26 17.4827 180.161 16.2679H185.207V21.5833C184.857 22.9006 184.707 23.5321 184.682 25.1269H185.231C185.532 22.5447 187.129 21.2294 189.403 21.2294C192.775 21.2294 193.825 23.8378 193.825 27.0274V31.5082C193.825 33.7868 193.825 34.2936 194 36.2665H188.755C188.905 34.3177 188.905 33.7345 188.905 31.5082V28.5961H188.903Z" fill="#003734"/>
</g>
<defs>
<clipPath id="clip0_9_13">
<rect width="194" height="51" fill="white"/>
</clipPath>
</defs>
</svg>
